<?xml version="1.0" encoding="utf-8"?>
<!-- Generator: Adobe Illustrator 24.0.0, SVG Export Plug-In . SVG Version: 6.00 Build 0)  -->
<svg version="1.1" id="Capa_1" xmlns="http://www.w3.org/2000/svg" xmlns:xlink="http://www.w3.org/1999/xlink" x="0px" y="0px"
	 viewBox="0 0 301 72" style="enable-background:new 0 0 301 72;" xml:space="preserve">
<style type="text/css">
	.st0{fill:#E84842;}
</style>
<g id="JXxxsA_1_">
	<g>
		<path class="st0" d="M27.8,40.5c2.5-2.1,5.3-3.7,8.5-4.7c4.2-1.3,8.5-1.3,12.7-0.2c3,0.8,5.5,2.4,7,5.4c0.3-0.2,0.5-0.4,0.7-0.6
			c3.4-2.8,7.2-4.8,11.6-5.4c4.1-0.5,8.2-0.3,12.1,1.5c3.2,1.5,4.9,4.2,5.4,7.7c0.2,1.2,0.2,2.4,0.2,3.6c0,7.3,0,14.5,0,21.8
			c0,0.3,0,0.6,0,1c-7.8,0-15.5,0-23.3,0c0-0.3,0-0.6,0-0.9c0-7.2,0-14.5,0-21.7c0-0.8-0.1-1.6-0.4-2.3c-0.8-2.1-3.9-1.9-4.9-0.7
			c-0.2,0.3-0.3,0.7-0.3,1.1c0,7.8,0,15.7,0,23.5c0,0.3,0,0.6,0,1c-7.8,0-15.5,0-23.3,0c0-0.3,0-0.6,0-0.9c0-7.2,0-14.5,0-21.7
			c0-0.8-0.1-1.6-0.4-2.3c-0.4-1-1.3-1.5-2.4-1.5c-1.2,0-2.2,0.3-2.8,1.3c-0.2,0.3-0.2,0.6-0.2,1c0,7.7,0,15.5,0,23.2
			c0,0.3,0,0.6,0,1c-7.5,0-15,0-22.5,0c0-0.3,0-0.6,0-0.8c0-6.3,0-12.6,0-18.9c0-2-0.6-3.5-2.2-4.7c-0.4-0.3-0.8-0.6-1.2-1
			c-1.8-1.6-2-4.3-0.4-6.1c1.2-1.4,2.8-2.1,4.5-2.7c5.2-1.6,10.4-2.1,15.7-0.8c2,0.5,3.8,1.3,5,3C27.2,39.3,27.4,39.9,27.8,40.5z"/>
		<path class="st0" d="M147.6,40.4c1.5-0.9,2.9-2,4.4-2.8c4-2.2,8.2-3,12.7-2.6c1.4,0.1,2.8,0.3,4.1,0.7c3.3,0.9,4.9,2.2,7,5.3
			c0.8-0.6,1.5-1.2,2.3-1.7c5.1-3.7,10.7-5.1,16.9-4.2c2.5,0.4,4.9,1,7,2.6c2.1,1.7,3.2,3.9,3.6,6.5c0.2,1.2,0.2,2.4,0.2,3.5
			c0,7.3,0,14.6,0,21.9c0,0.3,0,0.6,0,1c-7.8,0-15.5,0-23.3,0c0-0.3,0-0.5,0-0.8c0-7.3,0-14.5,0-21.8c0-0.8-0.1-1.6-0.4-2.3
			c-0.8-2.1-3.9-1.9-4.9-0.7c-0.2,0.3-0.3,0.7-0.3,1.1c0,7.8,0,15.7,0,23.5c0,0.3,0,0.6,0,1c-7.8,0-15.5,0-23.3,0c0-0.3,0-0.5,0-0.8
			c0-7.3,0-14.5,0-21.8c0-0.7-0.1-1.5-0.4-2.1c-0.4-1-1.2-1.6-2.3-1.7c-1.2-0.1-2.3,0.2-3,1.3c-0.2,0.2-0.2,0.6-0.2,1
			c0,7.7,0,15.5,0,23.2c0,0.3,0,0.6,0,1c-7.5,0-15,0-22.5,0c0-0.3,0-0.6,0-0.8c0-6.2,0-12.5,0-18.7c0-2.1-0.6-3.7-2.4-4.9
			c-0.4-0.2-0.7-0.5-1-0.8c-2-1.7-2.1-4.4-0.4-6.3c1.2-1.3,2.8-2,4.4-2.5c5.2-1.6,10.4-2.1,15.7-0.8c2,0.5,3.8,1.3,5,3
			C147.1,39.3,147.3,39.9,147.6,40.4z"/>
		<path class="st0" d="M234.8,72c-6.6-0.1-12.2-1.6-17-5.4c-4.5-3.6-7-8.2-6.9-14c0.1-5.1,2.4-9.2,6.2-12.5c4.1-3.5,9-5.3,14.3-5.8
			c5.4-0.5,10.6,0.4,15.5,2.9c4.5,2.4,8,5.8,9.6,10.7c2.1,6.7,0.4,12.5-4.5,17.4c-3.8,3.7-8.6,5.6-13.8,6.3
			C237,71.9,235.6,71.9,234.8,72z M235.2,46.5c-3.8,3.4-3.9,9.8-0.4,13.7c3.2,3.5,8,4.1,11.7,1.5c3.2-2.3,4.8-6.5,3.8-10.3
			c-0.2-0.9-0.6-1.8-0.9-2.7C245.4,51.2,239.4,51.1,235.2,46.5z"/>
		<path class="st0" d="M289.9,39.1c-2.6,0-4.8,2.1-4.7,4.5c0,1,0.5,1.9,1.3,2.5c1.2,0.9,2.5,1.8,3.8,2.6c2.1,1.3,4.2,2.4,6.2,3.8
			c2.5,1.8,4,4.2,3.8,7.4c-0.2,3.2-1.7,5.7-4.2,7.6c-2.7,2-5.8,3.1-9,3.7c-6.5,1.1-12.9,0.9-19.1-1.2c-2.2-0.7-4.2-1.7-5.7-3.4
			c-0.6-0.7-1.1-1.5-1.4-2.4c-0.7-2.3,0.6-4.3,3-4.9c2.1-0.5,3.9,0.1,5.2,1.9c1.2,1.7,1.7,3.7,1.9,5.7c0,0.1,0,0.3,0,0.4
			c0,0,0,0,0.1,0.1c1.9-0.1,3.6-0.7,4.7-2.5c1-1.7,0.4-3.8-1.4-4.8c-1.2-0.7-2.5-1.2-3.8-1.8c-2.5-1.2-4.8-2.5-6.8-4.4
			c-4.1-4-4.1-9.5-0.1-13.5c2.6-2.7,5.9-4.2,9.5-5.1c6.6-1.6,13.2-1.1,19.6,1c2.3,0.8,4.5,1.9,6.1,3.9c0.5,0.7,0.9,1.6,1.1,2.4
			c0.4,2.3-1.1,4-3.6,4.4c-2.2,0.4-3.8-0.5-5-2.3c-0.9-1.4-1.4-3-1.6-4.7C290,39.8,289.9,39.4,289.9,39.1z"/>
		<path class="st0" d="M117.4,70.8c-7.5,0-15,0-22.5,0c0-0.3,0-0.6,0-0.9c0-6.3-0.1-12.6,0-18.9c0-2-0.7-3.6-2.3-4.7
			c-0.3-0.2-0.6-0.4-0.9-0.7c-2.3-1.8-2.4-4.9-0.2-6.9c1.2-1,2.6-1.7,4.1-2.2c5.2-1.6,10.4-2,15.8-0.8c1.5,0.3,2.9,0.9,4,1.9
			c1.4,1.2,2,2.8,2,4.7c0,9.2,0,18.4,0,27.6C117.4,70.3,117.4,70.5,117.4,70.8z"/>
		<path class="st0" d="M105.6,24.2c-6.5,0-11.9-5.2-11.9-11.7c0-6.5,5.3-11.8,11.8-11.9c6.6-0.1,12,5.2,12.1,11.7
			C117.6,18.8,112.2,24.2,105.6,24.2z"/>
	</g>
</g>
</svg>
